<?xml version="1.0" encoding="UTF-8"?>
<svg id="Capa_1" xmlns="http://www.w3.org/2000/svg" viewBox="0 0 1036 419">
  <defs>
    <style>
      .cls-1 {
        stroke: #99b5b4;
        stroke-miterlimit: 10;
        stroke-width: 2px;
      }

      .cls-1, .cls-2 {
        fill: #99b5b4;
      }

      .cls-3 {
        fill: #00517d;
      }
    </style>
  </defs>
  <rect width="1036" height="419"/>
  <path class="cls-2" d="M529.06,210.34h6.31c1.53,0,2.76,1.08,3,2.48.46,2.69,1.73,4.65,3.82,5.89,1.02.62,2.12.93,3.28.93,2.59,0,4.55-1.22,5.89-3.65.85-1.59,1.27-3.48,1.27-5.65v-26.37c0-.84-.41-1.64-1.1-2.18h0c-2.2-1.68-.91-5,1.93-5h8.57c1.68,0,3.04,1.26,3.04,2.82v30.72c0,6.33-2.52,11.16-7.56,14.48-3.52,2.26-7.54,3.39-12.04,3.39-5.66,0-10.39-1.68-14.18-5.05-2.89-2.63-4.64-5.85-5.25-9.67-.26-1.67,1.21-3.15,3.03-3.15Z"/>
  <path class="cls-2" d="M570.27,202.04c0-8.86,2.94-15.7,8.83-20.53,1.38-1.11,2.83-2.04,4.35-2.79h0c2.87-1.77,6.23-2.72,9.67-2.72h1.7c6.46,0,12,2.06,16.59,6.18,5.35,4.87,8.03,11.49,8.03,19.86s-2.9,15.61-8.7,20.53c-4.55,3.76-9.86,5.64-15.92,5.64-6.47,0-11.97-2.08-16.52-6.24-5.35-4.91-8.03-11.56-8.03-19.93ZM605.93,202.17c0-7.08-1.78-12.18-5.35-15.28-1.74-1.55-3.66-2.32-5.75-2.32-3.26,0-5.95,1.68-8.09,5.05-2.01,3.23-3.01,7.42-3.01,12.56,0,7.04,1.78,12.11,5.35,15.21,1.78,1.51,3.7,2.26,5.75,2.26,3.25,0,5.95-1.66,8.09-4.98,2.01-3.23,3.01-7.4,3.01-12.49Z"/>
  <path class="cls-2" d="M653.97,185.03c-.44-.26-.96-.4-1.48-.4h-8.76c-3.26,0-5.48,1.22-6.69,3.65-.4.84-.6,1.73-.6,2.66,0,1.82,1.4,3.17,4.21,4.05.27.09,2.76.66,7.49,1.73,5.66,1.29,9.59,3.21,11.77,5.78,2.01,2.39,3.01,5.47,3.01,9.23,0,4.56-1.67,8.35-5.02,11.36-3.21,2.88-7.34,4.32-12.38,4.32h-19.75c-1.8,0-3.12-1.56-2.7-3.18l1.45-5.57c.61-2.34,4.04-2.7,5.19-.53h0c.47.88,1.43,1.44,2.49,1.44h7.64c4.24,0,7.16-1.35,8.76-4.05.58-1.02.87-2.08.87-3.19,0-2.48-1.58-4.3-4.75-5.45-.63-.22-3.21-.84-7.76-1.86-5.17-1.2-8.76-2.95-10.77-5.25-1.87-2.17-2.81-5.05-2.81-8.63,0-4.25,1.54-7.79,4.62-10.63.36-.31.69-.57,1-.8l1.36-.66c1.47-.71,3.08-1.12,4.74-1.2l20.62-1.06c1.53,0,2.78,1.15,2.78,2.58v3.64c0,2.03-2.41,3.26-4.26,2.18l-.28-.17Z"/>
  <path class="cls-2" d="M670.08,182.64h0c-.65-3.43,2.25-6.54,5.99-6.44l23.16.6c3.07,0,5.56,2.31,5.56,5.17h0c0,2.49-2.95,4-5.22,2.67h0s-24.75,0-24.75,0l7.85-.71-.22,13.6,10.98.22c1.13.02,2.02.88,2.02,1.92l-.02,3.7c0,1.11-.97,2-2.16,2h-10.82v14.22h16.46c1.44-2.68,5.68-2.23,6.42.68h0c.94,3.68-2.07,7.2-6.14,7.2l-22.51-.03c-4.42,0-7.67-3.86-6.62-7.85h0v-36.93Z"/>
  <path class="cls-2" d="M753.72,180.86l-.57-.43c-2.04-1.55-.86-4.63,1.78-4.63h9.39c1.55,0,2.81,1.17,2.81,2.61v37.56c0,1.44,1.26,2.61,2.81,2.61h11.91c1.07,0,2.04-.56,2.51-1.44h0c1.17-2.18,4.63-1.81,5.25.55l1.43,5.51c.43,1.64-.91,3.22-2.73,3.22h-32.04c-1.82,0-3.16-1.59-2.73-3.23l1.14-4.3c.05-.2.08-.41.08-.62v-35.38c0-.78-.38-1.52-1.03-2.02Z"/>
  <path class="cls-2" d="M810.07,209.34c0,3.23,1.49,5.78,4.48,7.64,1.83,1.15,3.79,1.73,5.89,1.73,3.25,0,5.6-1.33,7.02-3.98.8-1.55,1.2-3.34,1.2-5.38v-27.7h0c-2.58-1.96-1.09-5.85,2.25-5.85h0c3.71,0,6.72,2.79,6.72,6.24v27.31c0,7.26-2.7,12.42-8.09,15.48-2.85,1.64-6.15,2.46-9.9,2.46-5.66,0-10.66-1.62-14.98-4.85-4.59-3.5-6.91-7.86-6.96-13.09v-27.7h0c-2.58-1.96-1.09-5.85,2.25-5.85h0c5.59,0,10.13,4.21,10.13,9.4v24.14Z"/>
  <path class="cls-2" d="M847.85,181.8h0c-2.21-1.68-.93-5,1.92-5h8.53c1.68,0,3.04,1.26,3.04,2.82v39.62c0,.23.03.45.09.67l1.06,4.02c.47,1.78-.98,3.49-2.95,3.49h-8.78c-1.97,0-3.42-1.71-2.95-3.49l1.06-4.02c.06-.22.09-.45.09-.67v-35.26c0-.85-.41-1.65-1.11-2.18Z"/>
  <path class="cls-2" d="M902.81,184.03c-.44-.26-.96-.4-1.48-.4h-8.76c-3.26,0-5.48,1.22-6.69,3.65-.4.84-.6,1.73-.6,2.66,0,1.82,1.4,3.17,4.21,4.05.27.09,2.76.66,7.49,1.73,5.66,1.29,9.59,3.21,11.77,5.78,2.01,2.39,3.01,5.47,3.01,9.23,0,4.56-1.67,8.35-5.02,11.36-3.21,2.88-7.34,4.32-12.38,4.32h-19.75c-1.8,0-3.12-1.56-2.7-3.18l1.45-5.57c.61-2.34,4.04-2.7,5.19-.53h0c.47.88,1.43,1.44,2.49,1.44h7.64c4.24,0,7.16-1.35,8.76-4.05.58-1.02.87-2.08.87-3.19,0-2.48-1.58-4.3-4.75-5.45-.63-.22-3.21-.84-7.76-1.86-5.17-1.2-8.76-2.95-10.77-5.25-1.87-2.17-2.81-5.05-2.81-8.63,0-4.25,1.54-7.79,4.62-10.63.36-.31.69-.57,1-.8l1.36-.66c1.47-.71,3.08-1.12,4.74-1.2l20.62-1.06c1.53,0,2.78,1.15,2.78,2.58v3.64c0,2.03-2.41,3.26-4.26,2.18l-.28-.17Z"/>
  <rect class="cls-3" x="33" y="292.38" width="53.9" height="87.62" rx="12" ry="12"/>
  <g>
    <line class="cls-1" x1="34.1" y1="320.42" x2="86.9" y2="320.42"/>
    <line class="cls-1" x1="59.7" y1="292.38" x2="59.7" y2="321.59"/>
  </g>
  <path class="cls-3" d="M129.51,79.18h110.81s9.59.5,11.58,10.76v26.33s-1.97,10.88-13.56,10.84h-29.48s-.06,144.47-.06,144.47c0,0-1.99,11.16-11.81,11.02l-65.22-.15s-9.05,1.17-11.87-9.93l.31-28.4s2.52-8.35,9.87-9.54h35.67v-107.47s-33.97-.04-33.97-.04c0,0-9.96.86-11.77-10.67l.05-26.92s.41-7.98,9.46-10.31Z"/>
  <path class="cls-2" d="M212.3,130.73l29.15-.15s11-2.04,11.55-10.95v117.29s124.85-.03,124.85-.03c0,0,9.48,0,11.89,9.93l.21,26.29s-1.1,11.68-12.1,11.68h-155.68s-9.32-2.34-10.42-11.68l.55-142.38Z"/>
  <path class="cls-3" d="M233.37,288.44v15.81l-3.48-.15v26.65s0,5.56,4.73,6.44h12.52s5.29,0,5.84-5.86v-27.23h-3.62v-15.81l-16,.15Z"/>
  <rect class="cls-2" x="236.57" y="294.15" width="3.06" height="3.22"/>
  <rect class="cls-2" x="242.98" y="294.15" width="3.06" height="3.22"/>
  <path class="cls-3" d="M235.39,337.2v32.51s0,6.79,6.05,6.79h180.95s5.5,0,6.6-5.84V46.47s.45-5.13-4.72-6.36l-40.38-.06H62.42s-8.52-1.17-8.52,8.76v243.58h13.2V51.72h212.26s137.53,0,137.53,0v311.92h-169.4v-26.87s-12.1.42-12.1.42Z"/>
</svg>